<svg xmlns="http://www.w3.org/2000/svg" aria-hidden="true" style="position:absolute;width:0;height:0;overflow:hidden">
  <defs>
    <symbol id="icon-login" viewBox="0 0 32 32">
      <path stroke-linecap="round" stroke-linejoin="round" stroke-width="1.5" d="M11.867 10.08c.413-4.8 2.88-6.76 8.28-6.76h.173c5.96 0 8.347 2.387 8.347 8.347v8.693c0 5.96-2.387 8.347-8.347 8.347h-.173c-5.36 0-7.827-1.933-8.267-6.653M2.667 16H19.84"/>
      <path stroke-linecap="round" stroke-linejoin="round" stroke-width="1.5" d="M16.867 11.533 21.334 16l-4.467 4.467"/>
    </symbol>
   <symbol id="icon-Vector" viewBox="0 0 26 32">
<path d="M7.463 30.054c0.489-2.543 0.905-5.22 1.494-7.897 0.29-1.401-0.063-1.999-1.63-1.892s-3.313 0.054-4.979 0c-1.666-0.053-1.964-0.892-1.005-2.088 4.726-5.836 9.506-11.601 14.268-17.347 0.534-0.651 1.15-1.115 2.028-0.625s0.697 1.098 0.552 1.829c-0.525 2.677-0.96 5.354-1.539 7.978-0.299 1.356 0.091 1.838 1.503 1.785 1.417-0.071 2.837-0.071 4.255 0 0.806 0 1.865-0.419 2.281 0.678s-0.462 1.562-0.905 2.213c-1.811 2.231-3.645 4.459-5.504 6.684-2.722 3.248-5.423 6.484-8.102 9.709-0.525 0.634-1.114 1.142-2.010 0.821s-0.706-1.080-0.706-1.847z"></path>
</symbol>
    <symbol id="icon-hexagon-01" viewBox="0 0 32 32">
      <path stroke-linecap="round" stroke-linejoin="round" stroke-width="2.667" d="M14.964 3.242c.378-.21.567-.315.767-.356.177-.036.36-.036.537 0 .2.041.389.146.767.356l9.867 5.482c.399.222.599.333.744.491.129.14.226.305.285.485.067.204.067.432.067.889v10.823c0 .457 0 .685-.067.889-.06.18-.157.346-.285.485-.145.158-.345.269-.744.491l-9.867 5.482c-.378.21-.567.315-.767.356-.177.036-.36.036-.537 0-.2-.041-.389-.146-.767-.356l-9.867-5.482c-.399-.222-.599-.333-.744-.491a1.34 1.34 0 0 1-.286-.485C4 22.097 4 21.869 4 21.412V10.589c0-.457 0-.685.067-.889.06-.18.157-.346.286-.485.145-.158.345-.269.744-.491l9.867-5.481z"/>
    </symbol>
    <symbol id="icon-colors" viewBox="0 0 32 32">
      <path stroke-linecap="round" stroke-linejoin="round" stroke-width="2.667" d="M16 27.296a8 8 0 1 0 7.44-13.683m-14.88.001a8 8 0 1 0 9.546 4.773M24 10.667a8 8 0 1 1-16 0 8 8 0 0 1 16 0z"/>
    </symbol>
    <symbol id="icon-lightning-02" viewBox="0 0 32 32">
      <path stroke-linecap="round" stroke-linejoin="round" stroke-width="2.667" d="M18.999 2.667h-7.674c-.239 0-.359 0-.465.036a.672.672 0 0 0-.249.154c-.08.078-.133.185-.24.399l-5.6 11.2c-.256.511-.383.767-.353.974a.669.669 0 0 0 .277.449c.172.12.458.12 1.029.12h8.274l-4 13.333 16.258-16.86c.548-.569.823-.853.839-1.097a.665.665 0 0 0-.235-.553c-.186-.157-.581-.157-1.372-.157h-9.49l3-8z"/>
    </symbol>
    <symbol id="icon-container" viewBox="0 0 32 32">
      <path stroke-linecap="round" stroke-linejoin="round" stroke-width="2.667" d="M27.333 9.704 16 16m0 0L4.667 9.704M16 16v12.667m12-7.256V10.588c0-.457 0-.685-.067-.889a1.343 1.343 0 0 0-.285-.485c-.145-.158-.345-.269-.744-.491l-9.867-5.481c-.378-.21-.567-.315-.767-.356a1.349 1.349 0 0 0-.537 0c-.2.041-.389.146-.767.356L5.099 8.723c-.399.222-.599.333-.744.491a1.34 1.34 0 0 0-.286.485c-.067.204-.067.432-.067.889v10.823c0 .457 0 .685.067.889.06.18.157.346.286.485.145.158.345.269.744.491l9.867 5.482c.378.21.567.315.767.356.177.036.36.036.537 0 .2-.041.389-.146.767-.356l9.867-5.482c.399-.222.599-.333.744-.491.129-.14.226-.305.285-.485.067-.204.067-.432.067-.889z"/>
    </symbol>
    <symbol id="icon-puzzle-piece-02" viewBox="0 0 32 32">
      <path stroke-linecap="round" stroke-linejoin="round" stroke-width="2.667" d="m16 2.667 4.8 4.8C24-.933 32.933 8 24.533 11.2l4.8 4.8-4.8 4.8c-3.2-8.4-12.133.533-3.733 3.733l-4.8 4.8-4.8-4.8C8 32.933-.933 24 7.467 20.8l-4.8-4.8 4.8-4.8c3.2 8.4 12.133-.533 3.733-3.733l4.8-4.8z"/>
    </symbol>
    <symbol id="icon-loading-03" viewBox="0 0 32 32">
      <path stroke-linecap="round" stroke-linejoin="round" stroke-width="2.667" d="M4.454 22.666a6.364 6.364 0 0 1 1.944-8.453l.003-.003a6.37 6.37 0 0 1 7.312.126l4.576 3.327a6.37 6.37 0 0 0 7.312.126l.003-.003a6.36 6.36 0 0 0 1.943-8.453m-4.878 18.213a6.365 6.365 0 0 1-8.453-1.944l-.003-.003a6.37 6.37 0 0 1 .126-7.312l3.327-4.576a6.37 6.37 0 0 0 .126-7.312l-.006-.003a6.363 6.363 0 0 0-8.453-1.942m16.094 2.118c5.207 5.207 5.207 13.648 0 18.855s-13.648 5.207-18.855 0c-5.207-5.207-5.207-13.648 0-18.855s13.648-5.207 18.855 0z"/>
    </symbol>
    <symbol id="icon-star-04" viewBox="0 0 32 32">
      <path stroke-linecap="round" stroke-linejoin="round" stroke-width="2.667" d="m16 2.667 2.683 6.975c.376.978.564 1.466.856 1.878.259.364.577.683.942.942.411.292.9.48 1.878.856l6.975 2.683-6.975 2.683c-.978.376-1.466.564-1.878.856a3.993 3.993 0 0 0-.942.942c-.292.411-.48.9-.856 1.878L16 29.335l-2.683-6.975c-.376-.978-.564-1.466-.856-1.878a4.012 4.012 0 0 0-.942-.942c-.411-.292-.9-.48-1.878-.856l-6.975-2.683 6.975-2.683c.978-.376 1.466-.564 1.878-.856.364-.259.683-.578.942-.942.292-.411.48-.9.856-1.878L16 2.667z"/>
    </symbol>
    <symbol id="icon-Project" viewBox="0 0 32 32">
      <path stroke-width="2.667" d="M4.396 6.978a3.465 3.465 0 0 1 2.582-2.582 7.408 7.408 0 0 1 3.377 0 3.465 3.465 0 0 1 2.582 2.582c.26 1.11.26 2.266 0 3.377a3.465 3.465 0 0 1-2.582 2.582c-1.11.26-2.266.26-3.377 0a3.465 3.465 0 0 1-2.582-2.582 7.408 7.408 0 0 1 0-3.377zM4.396 21.645a3.465 3.465 0 0 1 2.582-2.582 7.38 7.38 0 0 1 3.377 0 3.464 3.464 0 0 1 2.582 2.582 7.408 7.408 0 0 1 0 3.377 3.465 3.465 0 0 1-2.582 2.582 7.38 7.38 0 0 1-3.377 0 3.464 3.464 0 0 1-2.582-2.582 7.408 7.408 0 0 1 0-3.377zM19.063 6.978a3.464 3.464 0 0 1 2.582-2.582 7.408 7.408 0 0 1 3.377 0 3.465 3.465 0 0 1 2.582 2.582 7.38 7.38 0 0 1 0 3.377 3.464 3.464 0 0 1-2.582 2.582 7.408 7.408 0 0 1-3.377 0 3.465 3.465 0 0 1-2.582-2.582 7.38 7.38 0 0 1 0-3.377zM19.063 21.645a3.464 3.464 0 0 1 2.582-2.582 7.38 7.38 0 0 1 3.377 0 3.464 3.464 0 0 1 2.582 2.582 7.38 7.38 0 0 1 0 3.377 3.464 3.464 0 0 1-2.582 2.582 7.38 7.38 0 0 1-3.377 0 3.464 3.464 0 0 1-2.582-2.582 7.38 7.38 0 0 1 0-3.377z"/>
    </symbol>
    <symbol id="icon-trash-04" viewBox="0 0 32 32">
      <path stroke-linecap="round" stroke-linejoin="round" stroke-width="2.6" d="M12 4h8M4 8h24M6.667 8l.801 12.018c.149 2.231.223 3.347.588 4.243a6 6 0 0 0 3.672 3.435c.919.304 2.037.304 4.273.304 2.236 0 3.354 0 4.273-.304a6 6 0 0 0 3.672-3.435c.365-.896.439-2.012.588-4.243L25.335 8"/>
    </symbol>
    <symbol id="icon-pencil-01" viewBox="0 0 32 32">
      <path stroke-linecap="round" stroke-linejoin="round" stroke-width="2.6" d="m3.333 28.667 7.399-2.846c.473-.182.71-.273.931-.392.197-.106.384-.227.56-.364.199-.154.378-.333.736-.692l15.04-15.04A3.77 3.77 0 1 0 22.666 4L7.626 19.04c-.359.359-.538.538-.692.736a3.948 3.948 0 0 0-.364.56c-.119.221-.21.458-.392.931l-2.846 7.399zm0 0 2.744-7.135c.196-.511.295-.766.463-.883a.665.665 0 0 1 .505-.107c.201.038.395.232.782.619l3.012 3.012c.387.387.58.58.619.782a.665.665 0 0 1-.107.505c-.117.168-.372.267-.883.463l-7.135 2.744z"/>
    </symbol>
    <symbol id="icon-arrow-circle-broken-right" viewBox="0 0 32 32">
      <path stroke-linecap="round" stroke-linejoin="round" stroke-width="2.6" d="M4.45 9.333A13.328 13.328 0 0 1 16 2.666c7.364 0 13.333 5.97 13.333 13.333S23.363 29.332 16 29.332a13.329 13.329 0 0 1-11.55-6.667"/>
      <path stroke-linecap="round" stroke-linejoin="round" stroke-width="2.6" d="M16 21.333 21.333 16 16 10.667M2.667 16h18.667"/>
    </symbol>
    <symbol id="icon-Icon-1" viewBox="0 0 32 32">
      <path stroke-linecap="round" stroke-linejoin="round" stroke-width="3" d="M12.472 28c.94.83 2.175 1.333 3.528 1.333s2.588-.504 3.528-1.333M24 10.667a8 8 0 1 0-16 0c0 4.12-1.039 6.941-2.2 8.807-.979 1.574-1.469 2.361-1.451 2.58.02.243.071.336.267.481.177.131.974.131 2.569.131h17.63c1.595 0 2.392 0 2.569-.131.196-.145.247-.238.267-.481.018-.22-.472-1.006-1.451-2.58-1.161-1.866-2.2-4.687-2.2-8.807z"/>
    </symbol>
    <symbol id="icon-filter" viewBox="0 0 32 32">
      <path stroke-linecap="round" stroke-linejoin="round" stroke-width="3" d="M29.334 4H2.667l10.667 12.613v8.72L18.667 28V16.613L29.334 4z"/>
    </symbol>
  </defs>
</svg>
