<svg xmlns="http://www.w3.org/2000/svg" width="18" height="18" fill="none">
  <path stroke="#161616" stroke-linecap="round" stroke-linejoin="round" stroke-opacity=".5" stroke-width="1.5" d="M15.375 5.458 9 9m0 0L2.625 5.458M9 9v7.125m6.75-4.081V5.956c0-.257 0-.385-.038-.5a.75.75 0 0 0-.16-.273c-.082-.089-.195-.151-.42-.276l-5.55-3.083c-.212-.118-.318-.178-.43-.2a.75.75 0 0 0-.303 0c-.113.022-.22.082-.432.2l-5.55 3.083c-.224.125-.337.187-.419.276a.75.75 0 0 0-.16.273c-.038.115-.038.243-.038.5v6.088c0 .257 0 .385.038.5a.75.75 0 0 0 .16.273c.082.089.195.151.42.276l5.55 3.083c.212.118.318.177.43.2.1.021.203.021.303 0 .113-.023.22-.082.432-.2l5.55-3.083c.224-.125.337-.187.419-.276a.75.75 0 0 0 .16-.273c.038-.115.038-.243.038-.5Z"/>
</svg>
