<svg xmlns="http://www.w3.org/2000/svg" width="18" height="18" fill="none">
  <g clip-path="url(#a)">
    <path stroke="#161616" stroke-linecap="round" stroke-linejoin="round" stroke-opacity=".5" stroke-width="1.5" d="M2.505 12.75a3.58 3.58 0 0 1 1.093-4.755l.002-.002a3.583 3.583 0 0 1 4.113.071l2.574 1.872a3.583 3.583 0 0 0 4.113.07l.002-.001a3.578 3.578 0 0 0 1.093-4.755m-2.743 10.245A3.58 3.58 0 0 1 7.997 14.4l-.002-.002a3.583 3.583 0 0 1 .07-4.113l1.872-2.574a3.583 3.583 0 0 0 .071-4.113l-.003-.001A3.58 3.58 0 0 0 5.25 2.505m9.053 1.192a7.5 7.5 0 0 1 0 10.606 7.5 7.5 0 0 1-10.606 0 7.5 7.5 0 0 1 0-10.606 7.5 7.5 0 0 1 10.606 0Z"/>
  </g>
  <defs>
    <clipPath id="a">
      <path fill="#fff" d="M0 0h18v18H0z"/>
    </clipPath>
  </defs>
</svg>
